<svg xmlns="http://www.w3.org/2000/svg" aria-hidden="true" style="position:absolute;width:0;height:0;overflow:hidden">
<defs>
 <symbol id="linkedin-icon" viewBox="0 0 32 32">
 <path d="M32 16c0 4.418-1.791 8.418-4.686 11.314S20.419 32 16 32c-4.418 0-8.418-1.791-11.314-4.686S0 20.419 0 16c0-4.418 1.791-8.418 4.686-11.314S11.581 0 16 0c4.418 0 8.418 1.791 11.314 4.686S32 11.581 32 16z"/>
 <path d="M22.397 22.4v-.001h.003v-4.694c0-2.297-.494-4.066-3.179-4.066-1.291 0-2.157.708-2.51 1.38h-.037v-1.165h-2.546V22.4h2.651v-4.231c0-1.114.211-2.192 1.591-2.192 1.359 0 1.38 1.272 1.38 2.263v4.161h2.648zM9.811 13.854h2.654V22.4H9.811v-8.546zM11.137 9.6c-.849 0-1.537.689-1.537 1.537s.689 1.551 1.537 1.551 1.537-.703 1.537-1.551S11.985 9.6 11.137 9.6z" style="fill:var(--color2, #f4f4fd)"/>
 </symbol>

 <symbol id="facebook-icon" viewBox="0 0 32 32">
 <path d="M32 16c0 4.418-1.791 8.418-4.686 11.314S20.419 32 16 32c-4.418 0-8.418-1.791-11.314-4.686S0 20.419 0 16c0-4.418 1.791-8.418 4.686-11.314S11.581 0 16 0c4.418 0 8.418 1.791 11.314 4.686S32 11.581 32 16z"/>
 <path d="M18.132 11.725h1.169V9.69c-.202-.028-.895-.09-1.702-.09-1.685 0-2.839 1.06-2.839 3.008V14.4h-1.859v2.275h1.859V22.4h2.279v-5.724h1.784l.283-2.275h-2.068v-1.567c0-.658.178-1.108 1.094-1.108z" style="fill:var(--color2, #f4f4fd)"/>
 </symbol>

 <symbol id="twitter-icon" viewBox="0 0 32 32">
 <path d="M32 16c0 4.418-1.791 8.418-4.686 11.314S20.419 32 16 32c-4.418 0-8.418-1.791-11.314-4.686S0 20.419 0 16c0-4.418 1.791-8.418 4.686-11.314S11.581 0 16 0c4.418 0 8.418 1.791 11.314 4.686S32 11.581 32 16z"/>
 <path d="M22.4 12.031c-.476.209-.983.347-1.512.414.544-.325.959-.835 1.154-1.45-.507.302-1.067.516-1.664.635-.482-.513-1.168-.83-1.917-.83-1.453 0-2.622 1.179-2.622 2.625 0 .208.018.408.061.598-2.182-.106-4.112-1.152-5.409-2.745-.226.393-.359.842-.359 1.326 0 .909.468 1.714 1.166 2.181-.422-.008-.835-.13-1.186-.323v.029c0 1.275.91 2.334 2.102 2.578-.214.058-.446.086-.688.086-.168 0-.338-.01-.497-.045.34 1.039 1.305 1.803 2.452 1.828-.893.698-2.026 1.119-3.254 1.119-.215 0-.422-.01-.628-.036 1.162.75 2.54 1.178 4.026 1.178 4.829 0 7.469-4 7.469-7.467 0-.116-.004-.228-.01-.339.521-.37.958-.831 1.315-1.362z" style="fill:var(--color2, #f4f4fd)"/>
 </symbol>
 
 <symbol id="instagram-icon" viewBox="0 0 32 32">
 <path d="M32 16c0 4.418-1.791 8.418-4.686 11.314S20.419 32 16 32c-4.418 0-8.418-1.791-11.314-4.686S0 20.419 0 16c0-4.418 1.791-8.418 4.686-11.314S11.581 0 16 0c4.418 0 8.418 1.791 11.314 4.686S32 11.581 32 16z"/><path fill="#f4f4fd" d="M22.387 13.363c-.03-.68-.14-1.148-.298-1.553-.163-.43-.413-.815-.74-1.135-.32-.325-.708-.578-1.133-.738-.408-.158-.873-.268-1.553-.298-.685-.033-.903-.04-2.641-.04s-1.955.008-2.638.038c-.68.03-1.148.14-1.553.298-.43.163-.815.413-1.135.74-.325.32-.578.708-.738 1.133-.158.408-.268.873-.298 1.553-.032.685-.04.903-.04 2.641s.008 1.955.038 2.638c.03.68.14 1.148.298 1.553.162.43.415.815.74 1.135.32.325.708.578 1.133.738.408.158.873.268 1.553.298.683.03.9.038 2.638.038s1.955-.007 2.638-.038c.68-.03 1.148-.14 1.553-.298.86-.333 1.54-1.013 1.873-1.873.157-.408.268-.873.298-1.553.03-.683.038-.9.038-2.638s-.003-1.955-.033-2.638zm-1.152 5.226c-.028.625-.133.963-.22 1.188-.215.558-.658 1-1.215 1.215-.225.088-.565.192-1.188.22-.675.03-.878.038-2.585.038s-1.913-.007-2.586-.038c-.625-.027-.963-.132-1.188-.22-.278-.103-.53-.265-.735-.478-.213-.208-.375-.458-.478-.735-.088-.225-.193-.565-.22-1.188-.03-.675-.038-.878-.038-2.586s.007-1.913.038-2.585c.027-.625.132-.963.22-1.188.103-.278.265-.53.48-.735.207-.212.458-.375.735-.478.225-.088.565-.192 1.188-.22.675-.03.878-.038 2.586-.038 1.71 0 1.913.008 2.586.038.625.028.963.133 1.188.22.277.102.53.265.735.478.212.208.375.458.478.735.088.225.192.565.22 1.188.03.675.038.878.038 2.585s-.008 1.908-.038 2.583z" style="fill:var(--color2, #f4f4fd)"/>
 <path d="M16.024 12.713c-1.815 0-3.288 1.473-3.288 3.288s1.473 3.288 3.288 3.288c1.815 0 3.288-1.473 3.288-3.288s-1.473-3.288-3.288-3.288zm0 5.421c-1.178 0-2.133-.955-2.133-2.133s.955-2.133 2.133-2.133 2.133.955 2.133 2.133-.955 2.133-2.133 2.133zM20.21 12.583c0 .424-.344.768-.768.768s-.768-.344-.768-.768c0-.424.344-.768.768-.768s.768.344.768.768z" style="fill:var(--color2, #f4f4fd)"/>
 </symbol>

<symbol id="astronaut-icon" viewBox="0 0 75 32">
<path  d="M1.143.143h73.143c.552 0 1 .448 1 1v29.714c0 .552-.448 1-1 1H1.143c-.552 0-1-.448-1-1V1.143c0-.552.448-1 1-1z" style="fill:var(--color1, #f4f4fd)"/><path fill="#4d5ae5" d="M46.842 9.442c-.036-.11-.131-.19-.246-.207l-1.091-.159-.489-.989c-.103-.208-.444-.208-.547 0l-.489.989-1.092.159c-.115.017-.21.097-.246.207s-.006.232.077.312l.79.77-.187 1.087c-.019.114.027.23.121.298.095.069.219.077.321.023l.977-.514.977.514c.044.023.093.035.142.035.063 0 .126-.02.179-.058.094-.068.141-.184.121-.298l-.186-1.087.79-.77c.083-.081.113-.202.077-.312zm-1.407.759c-.071.07-.105.171-.087.27l.109.637-.572-.3c-.045-.024-.093-.035-.142-.035s-.097.012-.142.035l-.572.3.109-.637c.017-.099-.016-.2-.087-.27l-.463-.451.639-.093c.099-.014.185-.077.229-.167l.286-.579.286.579c.045.09.13.152.23.167l.639.093-.462.451zM43.505 18.584h-.609v.61h.609v-.61zM43.505 19.803h-.609v.61h.609v-.61z" style="fill:var(--color2, #4d5ae5)"/>
<path  d="M44.114 19.194h-.609v.61h.609v-.61zM42.895 19.194h-.61v.61h.61v-.61zM41.371 21.937h-.609v.61h.609v-.61zM41.371 23.156h-.609v.61h.609v-.61zM41.981 22.546h-.61v.61h.61v-.61zM40.762 22.546h-.61v.61h.61v-.61zM37.714 20.718h-.609v.61h.609v-.61zM37.714 21.937h-.609v.61h.609v-.61zM38.324 21.327h-.609v.61h.609v-.61zM37.105 21.327h-.61v.61h.61v-.61zM31.924 10.355h-.609v.61h.609v-.61zM31.924 11.575h-.609v.61h.609v-.61zM32.533 10.965h-.609v.61h.609v-.61zM31.314 10.965h-.61v.61h.61v-.61z" style="fill:var(--color2, #4d5ae5)"/>
<path  d="M42.694 14.948c-.164-.222-.405-.364-.679-.403-.275-.039-.546.033-.766.201l-.715.549-1.085.81-.776-.309c1.383-.621 2.351-2.005 2.351-3.611 0-2.185-1.784-3.962-3.978-3.962S33.068 10 33.068 12.185c0 .792.237 1.528.64 2.148l-1.579-.014h-.003c-.005 0-.009.002-.013.003-.03.001-.06.007-.089.018-.007.003-.015.004-.022.008-.003.002-.007.002-.011.004l-1.847.912h-.001l-1.082.52c-.012.005-.024.012-.036.02-.431.287-.578.851-.342 1.312.126.245.34.425.603.508.101.032.205.047.308.047.165 0 .329-.041.479-.121l.793-.422 1.294-.668.775-.005-3.11 3.095s-.001 0-.001.001l-.765.762c-.181.18-.28.418-.28.673s.099.493.28.674c.185.185.43.277.674.277s.488-.093.675-.277l.751-.748.995-.743.515.513-1.007 1.002s-.001 0-.001.001l-.765.762c-.181.18-.28.418-.28.673s.099.493.28.674c.186.185.43.277.674.277s.489-.093.674-.277l1.99-1.981s0-.001.001-.001l.577-.571-.002-.002c.004-.004.009-.005.013-.009l2.952-3.233 1.983.282c.014.002.029.003.043.003.037 0 .073-.009.107-.022.01-.004.019-.009.028-.013.011-.006.023-.009.033-.015l1.836-1.219c.007-.005.01-.012.017-.017s.016-.008.023-.015l.727-.681c.378-.354.43-.934.121-1.35zm-12.905 2.064c-.099.053-.211.064-.319.03-.107-.033-.193-.106-.244-.204-.092-.179-.039-.397.122-.515l.751-.361.181.528.076.222-.567.301zm1.998-1.045-.885.457-.251-.733 1.158-.572-.023.848zm8.628-3.783c0 .525-.125 1.02-.342 1.463l-2.389-1.085c-.025-.328-.195-.614-.45-.793l.837-2.777c1.359.432 2.345 1.7 2.345 3.193zm-6.736 0c0-1.848 1.511-3.352 3.368-3.352.145 0 .286.012.426.03l-.818 2.716c-.011 0-.021-.003-.033-.003-.59 0-1.07.479-1.07 1.067s.48 1.067 1.07 1.067c.397 0 .74-.219.925-.54l2.207 1.003c-.614.826-1.597 1.366-2.707 1.366-1.857 0-3.368-1.504-3.368-3.352zm3.404.457c0 .252-.207.457-.461.457s-.461-.205-.461-.457.207-.457.461-.457.461.205.461.457zm-7.103 8.585c-.135.134-.354.134-.488 0-.065-.065-.101-.151-.101-.242s.036-.177.101-.241l.55-.548.486.484-.548.546zm1.836 2.134c-.135.134-.354.134-.488 0-.065-.065-.101-.151-.101-.242s.035-.176.101-.241l.55-.548.487.484-.548.546zm1.99-1.982s-.001 0-.001.001l-1.009 1.006-.487-.484 1.008-1.003s.001 0 .001-.001c.023-.023.037-.05.051-.077.004-.008.012-.015.015-.023.009-.023.011-.049.015-.073.002-.014.008-.027.008-.041 0-.02-.007-.04-.012-.06-.004-.018-.004-.037-.011-.055-.012-.029-.031-.054-.052-.079-.006-.007-.008-.015-.014-.022s0-.001-.001-.001l-.918-.914c-.01-.01-.022-.014-.033-.022-.016-.012-.032-.024-.05-.033s-.035-.014-.053-.019c-.019-.006-.038-.01-.059-.011-.019-.001-.036.001-.055.003-.02.002-.039.005-.059.012s-.036.016-.054.026c-.011.006-.024.009-.035.016l-1.013.756-.515-.513 1.371-1.363 2.492 2.451-.53.525zm3.896-4.01c-.009-.001-.017.002-.026.002-.022-.001-.044 0-.066.004-.017.003-.034.006-.05.012-.019.007-.037.016-.055.027s-.033.021-.047.035c-.007.006-.016.009-.023.017l-2.685 2.94-2.473-2.432 1.619-1.61c.119-.119.12-.312.001-.431-.06-.06-.139-.09-.218-.089l-1.268.008.016-.919 1.774.015c.723.739 1.731 1.2 2.847 1.2.25 0 .494-.026.731-.07.023.018.045.037.074.049l1.377.549.087.433.102.506-1.716-.244zm2.31.102-.179-.89.827-.617.217.287.325.431-1.189.789zm2.145-1.618-.479.449-.532-.706.475-.364c.089-.068.2-.096.31-.082.111.016.208.073.275.162.124.167.103.399-.049.541z" style="fill:var(--color3, #2e2f42)"/>
<path  d="m36.344 17.454-1.225-1.219c-.119-.119-.311-.119-.43 0l-1.224 1.219c-.057.058-.089.135-.089.216s.032.159.089.216l1.224 1.219c.059.059.137.089.215.089s.156-.03.215-.089l1.225-1.219c.057-.057.09-.135.09-.216s-.032-.159-.09-.216zm-1.439 1.005-.792-.789.792-.789.793.789-.793.789zM38.38 9.755l-.147.592c.041.01.993.258.993 1.228h.609c0-1.153-.952-1.695-1.455-1.82zM39.835 12.184h-.609v.61h.609v-.61z" style="fill:var(--color3, #2e2f42)"/>
</symbol>

<symbol id="diagram-icon" viewBox="0 0 75 32">
<path  d="M1.143.143h73.143c.552 0 1 .448 1 1v29.714c0 .552-.448 1-1 1H1.143c-.552 0-1-.448-1-1V1.143c0-.552.448-1 1-1z" style="fill:var(--color1, #f4f4fd)"/>
<path  d="M37.1 15.408h.609v2.741H37.1v-2.741zM39.537 16.627h.609v1.523h-.609v-1.523zM34.663 17.541h.609v.609h-.609v-.609zM32.836 17.236h.609v.914h-.609v-.914z" style="fill:var(--color2, #4d5ae5)"/>
<path  d="M29.485 23.023h14.621c.505 0 .914-.409.914-.914v-1.218c0-.505-.409-.914-.914-.914h-.305v-7.596l1.73-1.639c.402.198.888.078 1.151-.285s.226-.862-.087-1.182c-.313-.32-.812-.368-1.18-.113s-.499.738-.31 1.144l-1.304 1.236v-.703c0-.505-.409-.914-.914-.914H30.703c-.505 0-.914.409-.914.914v9.138h-.305c-.505 0-.914.409-.914.914v1.218c0 .505.409.914.914.914zM45.934 9.621c.168 0 .305.136.305.305s-.136.305-.305.305c-.168 0-.305-.136-.305-.305s.136-.305.305-.305zm-15.535 1.218c0-.168.136-.305.305-.305h12.184c.168 0 .305.136.305.305v1.279l-.609.579v-1.249c0-.168-.136-.305-.305-.305H31.313c-.168 0-.305.136-.305.305v7.615c0 .168.136.305.305.305h10.966c.168 0 .305-.136.305-.305v-5.528l.609-.577v7.019H30.4v-9.138zm2.742 3.96c-.412-.001-.774.273-.884.671s.06.819.415 1.029c.354.21.806.157 1.102-.129l1.059.531c.123.062.272.033.364-.07l2.251-2.532 2.213 1.658c.119.089.285.079.392-.022l1.923-1.822v4.646H31.619v-7.006h10.357v1.52l-2.155 2.041-2.231-1.673c-.127-.095-.305-.077-.41.041l-2.282 2.567-.853-.427c.006-.037.01-.073.012-.111 0-.505-.409-.914-.914-.914zm.304.914c0 .168-.137.305-.305.305s-.305-.136-.305-.305.136-.305.305-.305c.168 0 .305.136.305.305zm1.828 4.874h3.046v.305c0 .168-.136.305-.305.305h-2.437c-.168 0-.305-.136-.305-.305v-.305zm-6.092.304c0-.168.137-.305.305-.305h5.178v.305c0 .505.409.914.914.914h2.437c.505 0 .914-.409.914-.914v-.305h5.178c.168 0 .305.136.305.305v1.218c0 .168-.137.305-.305.305H29.486c-.168 0-.305-.136-.305-.305v-1.218z" style="fill:var(--color3, #2e2f42)"/>
</symbol>

<symbol id="clock-icon" viewBox="0 0 75 32">
<path  d="M1.143.143h73.143c.552 0 1 .448 1 1v29.714c0 .552-.448 1-1 1H1.143c-.552 0-1-.448-1-1V1.143c0-.552.448-1 1-1z" style="fill:var(--color1, #f4f4fd)"/>
<path  d="M46.455 15.601c-.001-4.83-3.917-8.745-8.747-8.744s-8.745 3.917-8.744 8.747c.001 3.805 2.461 7.172 6.085 8.329.035.011.071.016.107.016.069 0 .137-.019.196-.054.077-.046.135-.118.162-.204l2.209-7c.604-.003 1.091-.495 1.087-1.099s-.495-1.091-1.099-1.088c-.162.001-.323.038-.469.109l-2.918-2.918c-.145-.14-.375-.136-.515.009-.137.141-.137.365 0 .506l2.916 2.919c-.224.457-.096 1.008.306 1.319l-2.104 6.67c-4.159-1.532-6.288-6.145-4.756-10.304s6.145-6.288 10.304-4.756c4.159 1.532 6.288 6.145 4.756 10.304-.749 2.032-2.286 3.675-4.264 4.556l-.227-1.071c-.041-.197-.235-.323-.432-.281-.062.013-.12.042-.167.085l-2.193 1.957c-.151.134-.164.364-.03.514.044.049.099.085.162.105l2.799.893c.191.061.397-.044.458-.235.019-.061.023-.125.01-.187l-.223-1.051c3.237-1.365 5.338-4.538 5.331-8.051zm-8.745-.365c.201 0 .365.163.365.364s-.163.364-.365.364-.364-.163-.364-.364c0-.201.163-.364.364-.364zm1.2 8.494 1.248-1.113.345 1.623-1.593-.51z" style="fill:var(--color3, #2e2f42)"/>
<path  d="M37.345 8.677v.729c0 .201.163.364.364.364s.365-.163.365-.364v-.729c0-.201-.163-.364-.365-.364s-.364.163-.364.364zM30.786 15.236c-.201 0-.364.163-.364.364s.163.364.364.364h.729c.201 0 .364-.163.364-.364s-.163-.364-.364-.364h-.729zM44.633 15.965c.201 0 .365-.163.365-.364s-.163-.364-.365-.364h-.729c-.201 0-.364.163-.364.364s.163.364.364.364h.729z" style="fill:var(--color2, #4d5ae5)"/>
</symbol>

<symbol id="antenna-icon" viewBox="0 0 75 32">
<path  d="M1.143.143h73.143c.552 0 1 .448 1 1v29.714c0 .552-.448 1-1 1H1.143c-.552 0-1-.448-1-1V1.143c0-.552.448-1 1-1z" style="fill:var(--color1, #f4f4fd)"/>
<path  d="m46.156 19.484-4.825-4.86.535-2.637c.138.054.285.082.433.083h.004c.681.008 1.24-.538 1.248-1.219s-.538-1.24-1.219-1.248c-.681-.008-1.24.538-1.248 1.219-.002.146.022.291.071.428l-2.834.346-4.623-4.647c-.057-.058-.134-.091-.215-.091-.08 0-.157.032-.213.089l-.864.859c-.119.119-.119.312 0 .431l.465.472c-1.802 3.313-1.217 7.416 1.44 10.093.024.023.053.042.083.056-.019.103-.029.208-.03.313v3.535h-3.657c-.841.001-1.523.683-1.524 1.524v.61c0 .168.137.305.305.305h14.019c.168 0 .305-.136.305-.305v-.61c-.001-.841-.683-1.523-1.524-1.524h-3.657v-1.567c.573.12 1.157.181 1.742.183 1.405-.002 2.787-.352 4.023-1.019l.467.47c.057.058.134.091.215.091.08 0 .157-.032.213-.089l.864-.859c.119-.119.119-.312 0-.431zm-4.282-9.065c.239-.237.625-.236.862.002s.236.625-.003.862c-.114.114-.269.177-.43.177h-.002c-.337-.002-.608-.276-.606-.613.001-.161.065-.315.18-.429h-.001zm-.717 2.002-.342 1.683-.672-.676 1.014-1.008zm-.346-.515-1.097 1.091-.849-.853 1.946-.237zm1.477 11.408c.505 0 .914.409.914.914v.305H29.793v-.305c0-.505.409-.914.914-.914h11.581zm-4.267-1.219v.61h-3.048v-.61h3.048zm-3.047-.609V19.17c0-.739.684-1.341 1.524-1.341s1.524.602 1.524 1.341v2.316h-3.048zm3.657-.969V19.17c0-1.075-.957-1.95-2.133-1.95-.761-.012-1.472.375-1.875 1.021-2.319-2.442-2.841-6.083-1.302-9.078l10.63 10.691c-1.641.835-3.523 1.07-5.319.665zm6.451-.391L33.049 8.023l.431-.43 4.534 4.56c.002 0 .003.004.006.005l7.494 7.538-.433.43z" style="fill:var(--color3, #2e2f42)"/>
<path  d="M36.5 18.438h-.003c-.505-.001-.915.408-.915.913s.408.915.913.916h.003c.505.001.915-.408.916-.913s-.408-.915-.913-.916zm.214 1.13c-.057.057-.135.089-.216.089-.168-.001-.304-.138-.303-.306.001-.081.033-.158.09-.215s.133-.088.213-.089c.169.001.304.138.303.306-.001.081-.033.158-.09.215h.003z" style="fill:var(--color2, #4d5ae5)"/>
</symbol>
</defs>
</svg>